<?xml version="1.0" standalone="no"?><!DOCTYPE svg PUBLIC "-//W3C//DTD SVG 1.1//EN" "http://www.w3.org/Graphics/SVG/1.1/DTD/svg11.dtd"><svg t="1560326557897" class="icon" style="" viewBox="0 0 1024 1024" version="1.1" xmlns="http://www.w3.org/2000/svg" p-id="2795" xmlns:xlink="http://www.w3.org/1999/xlink" width="84" height="84"><defs><style type="text/css"></style></defs><path d="M85.333333 938.666667V298.666667a42.666667 42.666667 0 0 1 42.666667-42.666667h170.666667V85.333333h426.666666v170.666667h170.666667a42.666667 42.666667 0 0 1 42.666667 42.666667v640h-341.333334v-213.333334h-170.666666v213.333334H85.333333M384 170.666667v256h85.333333V341.333333h85.333334v85.333334h85.333333V170.666667h-85.333333v85.333333h-85.333334V170.666667H384M170.666667 853.333333h170.666666v-128H170.666667v128m0-213.333333h170.666666v-128H170.666667v128m512 213.333333h170.666666v-128h-170.666666v128m0-213.333333h170.666666v-128h-170.666666v128m-256 0h170.666666v-128h-170.666666v128z" fill="" p-id="2796"></path></svg>